<svg id="visual" viewBox="0 0 1500 1500" width="1500" height="1500" xmlns="http://www.w3.org/2000/svg" xmlns:xlink="http://www.w3.org/1999/xlink" version="1.1"><path d="M0 46L83.3 48.5C166.7 51 333.3 56 500 58.5C666.7 61 833.3 61 1000 61C1166.7 61 1333.3 61 1416.7 61L1500 61L1500 0L1416.7 0C1333.3 0 1166.7 0 1000 0C833.3 0 666.7 0 500 0C333.3 0 166.7 0 83.3 0L0 0Z" fill="#45088b"></path><path d="M0 256L83.3 268.5C166.7 281 333.3 306 500 291C666.7 276 833.3 221 1000 201C1166.7 181 1333.3 196 1416.7 203.5L1500 211L1500 59L1416.7 59C1333.3 59 1166.7 59 1000 59C833.3 59 666.7 59 500 56.5C333.3 54 166.7 49 83.3 46.5L0 44Z" fill="#5106a1"></path><path d="M0 436L83.3 451C166.7 466 333.3 496 500 466C666.7 436 833.3 346 1000 321C1166.7 296 1333.3 336 1416.7 356L1500 376L1500 209L1416.7 201.5C1333.3 194 1166.7 179 1000 199C833.3 219 666.7 274 500 289C333.3 304 166.7 279 83.3 266.5L0 254Z" fill="#5e01b8"></path><path d="M0 481L83.3 513.5C166.7 546 333.3 611 500 598.5C666.7 586 833.3 496 1000 468.5C1166.7 441 1333.3 476 1416.7 493.5L1500 511L1500 374L1416.7 354C1333.3 334 1166.7 294 1000 319C833.3 344 666.7 434 500 464C333.3 494 166.7 464 83.3 449L0 434Z" fill="#7122c5"></path><path d="M0 541L83.3 578.5C166.7 616 333.3 691 500 673.5C666.7 656 833.3 546 1000 513.5C1166.7 481 1333.3 526 1416.7 548.5L1500 571L1500 509L1416.7 491.5C1333.3 474 1166.7 439 1000 466.5C833.3 494 666.7 584 500 596.5C333.3 609 166.7 544 83.3 511.5L0 479Z" fill="#833ccf"></path><path d="M0 661L83.3 683.5C166.7 706 333.3 751 500 728.5C666.7 706 833.3 616 1000 586C1166.7 556 1333.3 586 1416.7 601L1500 616L1500 569L1416.7 546.5C1333.3 524 1166.7 479 1000 511.5C833.3 544 666.7 654 500 671.5C333.3 689 166.7 614 83.3 576.5L0 539Z" fill="#8a45d3"></path><path d="M0 721L83.3 743.5C166.7 766 333.3 811 500 786C666.7 761 833.3 666 1000 638.5C1166.7 611 1333.3 651 1416.7 671L1500 691L1500 614L1416.7 599C1333.3 584 1166.7 554 1000 584C833.3 614 666.7 704 500 726.5C333.3 749 166.7 704 83.3 681.5L0 659Z" fill="#8a45d3"></path><path d="M0 766L83.3 796C166.7 826 333.3 886 500 863.5C666.7 841 833.3 736 1000 698.5C1166.7 661 1333.3 691 1416.7 706L1500 721L1500 689L1416.7 669C1333.3 649 1166.7 609 1000 636.5C833.3 664 666.7 759 500 784C333.3 809 166.7 764 83.3 741.5L0 719Z" fill="#833ccf"></path><path d="M0 1216L83.3 1213.5C166.7 1211 333.3 1206 500 1176C666.7 1146 833.3 1091 1000 1063.5C1166.7 1036 1333.3 1036 1416.7 1036L1500 1036L1500 719L1416.7 704C1333.3 689 1166.7 659 1000 696.5C833.3 734 666.7 839 500 861.5C333.3 884 166.7 824 83.3 794L0 764Z" fill="#7122c5"></path><path d="M0 1291L83.3 1283.5C166.7 1276 333.3 1261 500 1236C666.7 1211 833.3 1176 1000 1168.5C1166.7 1161 1333.3 1181 1416.7 1191L1500 1201L1500 1034L1416.7 1034C1333.3 1034 1166.7 1034 1000 1061.5C833.3 1089 666.7 1144 500 1174C333.3 1204 166.7 1209 83.3 1211.5L0 1214Z" fill="#5e01b8"></path><path d="M0 1471L83.3 1458.5C166.7 1446 333.3 1421 500 1416C666.7 1411 833.3 1426 1000 1431C1166.7 1436 1333.3 1431 1416.7 1428.5L1500 1426L1500 1199L1416.7 1189C1333.3 1179 1166.7 1159 1000 1166.5C833.3 1174 666.7 1209 500 1234C333.3 1259 166.7 1274 83.3 1281.5L0 1289Z" fill="#5106a1"></path><path d="M0 1501L83.3 1501C166.7 1501 333.3 1501 500 1501C666.7 1501 833.3 1501 1000 1501C1166.7 1501 1333.3 1501 1416.7 1501L1500 1501L1500 1424L1416.7 1426.5C1333.3 1429 1166.7 1434 1000 1429C833.3 1424 666.7 1409 500 1414C333.3 1419 166.7 1444 83.3 1456.5L0 1469Z" fill="#45088b"></path></svg>